<svg xmlns="http://www.w3.org/2000/svg" xmlns:xlink="http://www.w3.org/1999/xlink" width="128" height="128" version="1.0"><defs><linearGradient id="g"><stop offset="0" stop-color="#f9f06b"/><stop offset=".239" stop-color="#f5d859"/><stop offset=".597" stop-color="#e66100"/><stop offset=".834" stop-color="#e01b24"/><stop offset="1" stop-color="#e01b24"/></linearGradient><linearGradient id="a"><stop offset="0" stop-color="#d5d3cf"/><stop offset="1" stop-color="#f6f5f4"/></linearGradient><linearGradient id="b"><stop offset="0" stop-color="#d5d3cf"/><stop offset="1" stop-color="#949390"/></linearGradient><linearGradient id="c"><stop offset="0" stop-color="#9a9996"/><stop offset="1" stop-color="#77767b"/></linearGradient><linearGradient id="f"><stop offset="0" stop-color="#424048"/><stop offset=".047" stop-color="#f6f5f4"/><stop offset=".097" stop-color="#949390"/><stop offset=".9" stop-color="#d5d3cf"/><stop offset=".95" stop-color="#f6f5f4"/><stop offset="1" stop-color="#424048"/></linearGradient><linearGradient id="d"><stop offset="0" stop-opacity=".251"/><stop offset="1" stop-opacity=".031"/></linearGradient><linearGradient id="e"><stop offset="0" stop-color="#949390"/><stop offset="1" stop-color="#424048"/></linearGradient><linearGradient xlink:href="#f" id="h" gradientUnits="userSpaceOnUse" gradientTransform="matrix(.25 0 0 .24306 -32 93.564)" x1="177" y1="619.964" x2="600" y2="619.964"/><radialGradient xlink:href="#g" id="i" gradientUnits="userSpaceOnUse" gradientTransform="matrix(1.17689 0 0 1.20378 -11.493 -46.054)" cx="64.972" cy="226" fx="64.972" fy="226" r="44.972"/></defs><g transform="translate(0 -172)"><rect ry="9" rx="9" y="270" x="12" height="18" width="106" style="marker:none" fill="url(#h)"/><path style="marker:none" d="M48 180h31.945c8.864 0 14.352 7.29 16 16l14 76H20l12-76c1.382-8.756 7.136-16 16-16z" fill="url(#i)"/><path style="marker:none" d="M56 180c-8.864 0-14.618 7.244-16 16l-12 76h10l12-76c1.382-8.756 7.136-16 16-16z" opacity=".081" fill="#fff"/><path style="marker:none" d="M21 269.823a8.975 8.975 0 0 0-8.771 7 8.975 8.975 0 0 0 8.771 7h88a8.975 8.975 0 0 0 8.771-7 8.975 8.975 0 0 0-8.771-7z" fill="#f6f5f4"/><rect style="marker:none" width="8" height="40" x="60" y="200" rx="4" ry="4" fill="#fff"/><rect ry="4" rx="4" y="244" x="60" height="8" width="8" style="marker:none" fill="#fff"/></g></svg>